<svg width="150" height="150" viewBox="0 0 150 150" fill="none" xmlns="http://www.w3.org/2000/svg">
<path d="M75 0C33.75 0 0 33.75 0 75C0 116.25 33.75 150 75 150C116.25 150 150 116.25 150 75C150 33.75 116.25 0 75 0ZM64.2426 108.257C61.8995 110.601 58.1005 110.601 55.7574 108.257L26.7426 79.2426C24.3995 76.8995 24.3995 73.1005 26.7426 70.7574L28.8383 68.6617C31.1791 66.3209 34.9735 66.3183 37.3176 68.6558L55.7574 87.0442C58.1015 89.3818 61.8959 89.3791 64.2367 87.0383L112.667 38.6077C115.016 36.2587 118.827 36.2654 121.168 38.6227L123.287 40.7574C125.616 43.1029 125.61 46.8904 123.272 49.2277L64.2426 108.257Z" fill="#53A653"/>
</svg>
